PathFileType	4	(X/Y/Z)	/Users/itak/Documents/Research/Walk-IL/dataset/trc/00263_00009.trc
DataRate	CameraRate	NumFrames	NumMarkers	Units	OrigDataRate	OrigDataStartFrame	OrigNumFrames
100.000000	100.000000	4	53	mm	100.000000	95	380
Frame#	Time	RPSI			LPSI			L3			STRN			T10			C7			CLAV			RBAK			LBAK			LSHO			LUPA			LAEL			LAOL			LWTS			LWPS			LFRA			LIFD			LHPS			LHTS			RSHO			RUPA			RAEL			RAOL			RWTS			RWPS			RFRA			RIFD			RHTS			RHPS			RBHD			LFHD			RFHD			LBHD			LHIP			RHIP			RASI			LASI			LKNE			LTHI			LANK			LTIP			LTOE			LMT1			LMT5			LHEE			RKNE			RTHI			RTIP			RTOE			RMT1			RMT5			RHEE			RANK			
		X1	Y1	Z1	X2	Y2	Z2	X3	Y3	Z3	X4	Y4	Z4	X5	Y5	Z5	X6	Y6	Z6	X7	Y7	Z7	X8	Y8	Z8	X9	Y9	Z9	X10	Y10	Z10	X11	Y11	Z11	X12	Y12	Z12	X13	Y13	Z13	X14	Y14	Z14	X15	Y15	Z15	X16	Y16	Z16	X17	Y17	Z17	X18	Y18	Z18	X19	Y19	Z19	X20	Y20	Z20	X21	Y21	Z21	X22	Y22	Z22	X23	Y23	Z23	X24	Y24	Z24	X25	Y25	Z25	X26	Y26	Z26	X27	Y27	Z27	X28	Y28	Z28	X29	Y29	Z29	X30	Y30	Z30	X31	Y31	Z31	X32	Y32	Z32	X33	Y33	Z33	X34	Y34	Z34	X35	Y35	Z35	X36	Y36	Z36	X37	Y37	Z37	X38	Y38	Z38	X39	Y39	Z39	X40	Y40	Z40	X41	Y41	Z41	X42	Y42	Z42	X43	Y43	Z43	X44	Y44	Z44	X45	Y45	Z45	X46	Y46	Z46	X47	Y47	Z47	X48	Y48	Z48	X49	Y49	Z49	X50	Y50	Z50	X51	Y51	Z51	X52	Y52	Z52	X53	Y53	Z53	

96	0.9500000000000001	-872.0084228515625	1045.83203125	650.7723999023438	-940.7523803710938	1042.686157226562	552.444091796875	-912.1177978515625	1130.506958007812	590.6149291992188	-698.436767578125	1300.455078125	431.7369079589844	-899.243408203125	1255.719970703125	594.7881469726562	-835.722900390625	1512.656494140625	546.2196655273438	-711.1821899414062	1419.554077148438	446.3799438476562	-856.6182861328125	1376.69775390625	653.4033203125	-924.0970458984375	1479.442749023438	476.4969482421875	-890.5607299804688	1477.08544921875	376.6384887695312	-973.282958984375	1363.51513671875	340.7391967773438	-998.4034423828125	1155.535034179688	315.9977416992188	-1018.142211914062	1138.451293945312	399.6275024414062	-862.8077392578125	941.1883544921875	284.7080688476562	-933.0172119140625	914.843017578125	243.4566497802734	-981.1415405273438	1050.74267578125	286.3915710449219	-830.4531860351562	752.0611572265625	261.8599243164062	-902.25048828125	831.4765625	228.9126586914062	-836.0385131835938	848.2395629882812	237.5358123779297	-689.2294311523438	1467.36279296875	643.3544921875	-665.2070922851562	1405.389038085938	709.8515014648438	-649.9641723632812	1129.362915039062	770.657470703125	-727.8206176757812	1116.596923828125	716.4453125	-555.0639038085938	910.9527587890625	669.6544799804688	-559.2984008789062	901.8942260742188	753.4903564453125	-617.6477661132812	1062.018676757812	769.1731567382812	-554.9268798828125	726.1962280273438	666.42431640625	-509.8682861328125	791.1503295898438	666.416748046875	-521.3434448242188	795.0599975585938	738.0489501953125	-747.2572021484375	1670.981079101562	548.0772705078125	-655.7919311523438	1681.5224609375	340.0259399414062	-589.8435668945312	1678.68017578125	415.3684692382812	-800.9087524414062	1673.149658203125	417.8794250488281	-933.0612182617188	976.8816528320312	380.6567077636719	-732.9551391601562	1004.848999023438	688.2197875976562	-669.7119140625	1040.521240234375	601.0066528320312	-822.7650146484375	1018.568481445312	366.7385559082031	-737.2243041992188	525.9112548828125	305.1860656738281	-803.8958740234375	658.6013793945312	314.192626953125	-882.6703491210938	82.03466796875	458.0764770507812	-815.0672607421875	316.646240234375	373.6551208496094	-700.7064819335938	59.68514633178711	345.2726440429688	-716.4126586914062	56.22704315185547	422.7000732421875	-809.2974853515625	59.77238845825195	356.8933715820312	-886.5623779296875	100.0344543457031	535.699462890625	-756.5717163085938	511.3367614746094	656.1864013671875	-692.3671264648438	776.9803466796875	667.68017578125	-773.078857421875	391.7203674316406	645.5009765625	-721.4420776367188	45.27717208862305	560.021240234375	-790.2618408203125	42.48561096191406	546.5469970703125	-781.6680908203125	35.64608383178711	669.4868774414062	-973.0950927734375	42.54325866699219	669.1985473632812	-890.72412109375	38.63875579833984	693.5060424804688	
97	0.96	-865.4691772460938	1045.381713867188	648.7384643554688	-935.013671875	1042.176635742188	551.0948486328125	-905.9494018554688	1129.9951171875	589.103271484375	-693.61181640625	1299.662475585938	427.9276733398438	-892.8185424804688	1255.198364257812	593.10986328125	-829.3494873046875	1511.998291015625	543.7315673828125	-706.034912109375	1418.770629882812	442.6587829589844	-849.3160400390625	1376.140625	651.2469482421875	-918.6654052734375	1478.879638671875	475.1235046386719	-886.1409301757812	1476.498413085938	374.8224792480469	-969.42626953125	1362.9814453125	339.9426574707031	-995.22705078125	1155.020263671875	315.6954956054688	-1013.999450683594	1138.107421875	399.5851745605469	-861.0247802734375	939.8355102539062	283.3104858398438	-931.9098510742188	913.8759155273438	242.870361328125	-978.7567138671875	1050.111206054688	286.0693969726562	-830.1477661132812	750.4795532226562	260.4615478515625	-901.7823486328125	830.2700805664062	228.1568450927734	-835.4384765625	846.6403198242188	235.9975738525391	-681.9395751953125	1466.635375976562	639.3565673828125	-657.2486572265625	1404.615600585938	705.5586547851562	-641.1061401367188	1128.620239257812	766.1458740234375	-719.4677734375	1115.765747070312	712.7863159179688	-547.3818359375	910.2685546875	663.9373168945312	-550.5576171875	901.2018432617188	747.8314819335938	-608.8240966796875	1061.280395507812	764.244384765625	-547.3245849609375	725.41357421875	660.6456298828125	-501.9981994628906	790.5368041992188	660.1442260742188	-512.8043212890625	794.3714599609375	731.915283203125	-740.760009765625	1670.278076171875	544.7120361328125	-651.407958984375	1680.6826171875	335.7008361816406	-584.7255859375	1677.778076171875	410.3739318847656	-795.7890625	1672.512084960938	415.0540161132812	-928.7734985351562	976.519775390625	379.1940307617188	-726.1088256835938	1004.154357910156	685.1393432617188	-663.6631469726562	1039.820678710938	597.3779296875	-818.6058959960938	1018.001220703125	364.4862060546875	-731.1657104492188	526.8295288085938	301.4474182128906	-799.1551513671875	658.92333984375	311.1472473144531	-858.5057983398438	75.28874206542969	448.8102111816406	-800.9585571289062	313.6394958496094	367.5548706054688	-677.5596923828125	61.33794784545898	332.9337463378906	-691.9212036132812	56.04920196533203	410.5035095214844	-785.950439453125	57.40530014038086	346.1500854492188	-861.749267578125	91.80259704589844	526.8885498046875	-754.7376708984375	511.0960083007812	655.34765625	-687.5597534179688	776.2408447265625	665.0028076171875	-772.1484375	391.72412109375	645.2687377929688	-721.4616088867188	45.28508758544922	560.0806274414062	-790.254150390625	42.54154586791992	546.592041015625	-781.6239013671875	35.57570266723633	669.5313110351562	-973.1215209960938	43.05965423583984	669.2847900390625	-890.6786499023438	38.81571578979492	693.4987182617188	
98	0.97	-858.9526977539062	1044.8701171875	646.5679931640625	-929.24658203125	1041.58544921875	549.57177734375	-899.7726440429688	1129.41162109375	587.4548950195312	-688.7836303710938	1298.792114257812	424.0561218261719	-886.425537109375	1254.6015625	591.2962646484375	-823.0209350585938	1511.257690429688	541.1533813476562	-700.8767700195312	1417.905883789062	438.8529663085938	-842.0595092773438	1375.509643554688	648.9507446289062	-913.1486206054688	1478.219848632812	473.5426940917969	-881.6836547851562	1475.817993164062	372.8768920898438	-965.4932861328125	1362.355834960938	338.9965209960938	-991.9847412109375	1154.399536132812	315.2628173828125	-1009.815002441406	1137.6953125	399.4015502929688	-859.3446044921875	938.2515258789062	281.9081115722656	-930.918212890625	912.7579345703125	242.2579956054688	-976.3787841796875	1049.373901367188	285.6564025878906	-830.1942749023438	748.6268920898438	259.1814575195312	-901.5299072265625	828.8792114257812	227.4329528808594	-835.0383911132812	844.765625	234.525634765625	-674.70849609375	1465.830810546875	635.2655639648438	-649.36767578125	1403.752197265625	701.1561889648438	-632.3515014648438	1127.77197265625	761.4722290039062	-711.1928100585938	1114.846557617188	708.9905395507812	-539.8280639648438	909.498291015625	658.0807495117188	-541.968017578125	900.4122924804688	742.0166015625	-600.1187133789062	1060.437866210938	759.1578369140625	-539.8598022460938	724.5136108398438	654.7267456054688	-494.2971801757812	789.8040771484375	653.7162475585938	-504.4115905761719	793.5848999023438	725.6215209960938	-734.28759765625	1669.502319335938	541.2298583984375	-647.00341796875	1679.750244140625	331.3061218261719	-579.6134643554688	1676.793579101562	405.3094177246094	-790.6546020507812	1671.788696289062	412.1244506835938	-924.4010009765625	976.0512084960938	377.5910034179688	-719.2267456054688	1003.465698242188	681.8973999023438	-657.5628662109375	1039.086181640625	593.71875	-814.3300170898438	1017.32568359375	362.1375122070312	-725.3670654296875	527.479248046875	297.8705139160156	-794.5738525390625	658.999755859375	308.1650390625	-834.2731323242188	68.95075988769531	439.0537109375	-786.952880859375	310.6902160644531	361.3375854492188	-654.6129760742188	63.25680541992188	320.4050903320312	-667.5867309570312	56.27383041381836	398.0723571777344	-762.633544921875	55.3084602355957	335.0790405273438	-836.8723754882812	84.07026672363281	517.5415649414062	-752.8408813476562	510.8731994628906	654.4307861328125	-682.7584838867188	775.4381103515625	662.3020629882812	-771.1570434570312	391.7518920898438	644.96923828125	-721.4977416992188	45.28742218017578	560.1409912109375	-790.2616577148438	42.57647323608398	546.6332397460938	-781.5877685546875	35.50363159179688	669.5747680664062	-973.1441040039062	43.59893798828125	669.3621826171875	-890.6467895507812	39.02967071533203	693.4777221679688	
99	0.98	-852.4548950195312	1044.291137695312	644.2686157226562	-923.4468383789062	1040.899169921875	547.8880004882812	-893.5902099609375	1128.752807617188	585.65673828125	-683.9467163085938	1297.838256835938	420.1205139160156	-880.0611572265625	1253.924682617188	589.3458251953125	-816.7364501953125	1510.435668945312	538.4785766601562	-695.7074584960938	1416.958129882812	434.9601440429688	-834.8490600585938	1374.8037109375	646.512451171875	-907.5555419921875	1477.458618164062	471.7575073242188	-877.1856689453125	1475.0361328125	370.7972106933594	-961.4813232421875	1361.634765625	337.8914489746094	-988.6767578125	1153.670654296875	314.697021484375	-1005.596496582031	1137.2119140625	399.0689086914062	-857.7438354492188	936.4482421875	280.5032958984375	-930.0233154296875	911.4932861328125	241.6124267578125	-974.0038452148438	1048.524291992188	285.1458129882812	-830.5578002929688	746.5206909179688	258.0242309570312	-901.468505859375	827.3154296875	226.7357788085938	-834.8095703125	842.6298828125	233.1275177001953	-667.5343017578125	1464.94189453125	631.0800170898438	-641.5679321289062	1402.794677734375	696.6476440429688	-623.7138671875	1126.813110351562	756.6453857421875	-703.0299072265625	1113.862060546875	705.0878295898438	-532.402099609375	908.6427001953125	652.0910034179688	-533.5305786132812	899.5223388671875	736.049072265625	-591.5433349609375	1059.490966796875	753.9251708984375	-532.4933471679688	723.5062255859375	648.6676025390625	-486.7532348632812	788.965087890625	647.1375732421875	-496.152587890625	792.7005615234375	719.1672973632812	-727.8424682617188	1668.650634765625	537.63037109375	-642.5794677734375	1678.725708007812	326.8402709960938	-574.5084838867188	1675.730346679688	400.1756896972656	-785.4988403320312	1670.971801757812	409.0879821777344	-919.9390258789062	975.4730834960938	375.8372497558594	-712.3515625	1002.788940429688	678.5505981445312	-651.4114990234375	1038.305786132812	590.0225830078125	-809.9367065429688	1016.532836914062	359.6891174316406	-719.7832641601562	527.8443603515625	294.4649047851562	-790.1407470703125	658.8181762695312	305.239990234375	-810.05712890625	63.07881927490234	428.8423461914062	-773.0689697265625	307.818115234375	355.0237121582031	-631.9381103515625	65.44668579101562	307.7012634277344	-643.4890747070312	56.90645217895508	385.4255065917969	-739.4218139648438	53.50780487060547	323.7039489746094	-812.0092163085938	76.88329315185547	507.6722106933594	-750.8806762695312	510.6661071777344	653.4491577148438	-677.951171875	774.580078125	659.57421875	-770.1030883789062	391.7987060546875	644.59716796875	-721.5455322265625	45.28269958496094	560.1976318359375	-790.294677734375	42.5947380065918	546.6702880859375	-781.560546875	35.43546295166016	669.6162719726562	-973.1522216796875	44.17619323730469	669.4237060546875	-890.6327514648438	39.27448654174805	693.4336547851562	
